<?xml version="1.0" standalone="no"?>
<!DOCTYPE svg PUBLIC "-//W3C//DTD SVG 1.1//EN" "http://www.w3.org/Graphics/SVG/1.1/DTD/svg11.dtd" >
<svg xmlns="http://www.w3.org/2000/svg">
<metadata>Generated by IcoMoon</metadata>
<defs>
<font id="icomoon" horiz-adv-x="1024">
<font-face units-per-em="1024" ascent="960" descent="-64" />
<missing-glyph horiz-adv-x="1024" />
<glyph unicode="&#x20;" horiz-adv-x="512" d="" />
<glyph unicode="&#xe900;" glyph-name="facebook" horiz-adv-x="478" d="M459.193 445.704h-137.758v-514.296h-192.861v514.296h-128.574v179.085h128.574v105.614c0 142.35 36.735 229.596 206.637 229.596h142.35v-174.493h-87.247c-68.879 0-68.879-27.552-68.879-73.471v-87.247h160.717l-22.96-179.085z" />
<glyph unicode="&#xe901;" glyph-name="linkedin" horiz-adv-x="1072" d="M1072.075 330.216v-399.023h-230.761v370.178c0 91.343-33.653 158.648-115.38 158.648-62.498 0-100.958-43.268-120.188-81.728-4.808-14.423-9.615-33.653-9.615-57.69v-384.601h-225.953c0 0 4.808 624.977 0 692.282h230.761v-96.15c0 0 0 0 0 0v0 0c28.845 48.075 86.535 115.38 206.723 115.38 153.84-4.808 264.413-105.765 264.413-317.296zM129.803 960c-76.92 0-129.803-52.883-129.803-120.188s48.075-120.188 124.995-120.188v0c81.728 0 129.803 52.883 129.803 120.188s-48.075 120.188-124.995 120.188zM14.423-64h230.761v692.282h-230.761v-692.282z" />
<glyph unicode="&#xe902;" glyph-name="blogger" d="M697.295-64c180.419 0 321.829 146.286 321.829 321.829l4.876 263.314-4.876 14.629-9.752 19.505-14.629 9.752c-19.505 14.629-112.152 0-141.41 24.381-19.505 14.629-19.505 48.762-24.381 87.771-9.752 78.019-14.629 82.895-29.257 107.276-43.886 92.648-165.79 165.79-248.686 175.543h-229.181c-175.543 0-321.829-146.286-321.829-321.829v-375.467c0-180.419 146.286-326.705 321.829-326.705h375.467zM326.705 696.686h180.419c34.133 0 63.39-29.257 63.39-63.39s-29.257-63.39-63.39-63.39h-180.419c-34.133 4.876-58.514 29.257-58.514 63.39s24.381 63.39 58.514 63.39v0zM268.19 267.581c0 29.257 24.381 58.514 58.514 58.514h365.714c34.133 0 63.39-29.257 63.39-63.39s-29.257-63.39-63.39-63.39h-365.714c-34.133 4.876-58.514 34.133-58.514 68.267v0z" />
<glyph unicode="&#xe903;" glyph-name="bolsa-compra" d="M894.653 642.021h-194.021c-21.558 183.242-97.011 317.979-188.632 317.979s-167.074-134.737-188.632-317.979h-194.021l-129.347-706.021h1024l-129.347 706.021zM512 895.326c48.505 0 102.4-102.4 123.958-253.305h-247.916c21.558 150.905 75.453 253.305 123.958 253.305zM183.242 577.347h662.905l102.4-576.674h-873.095l107.789 576.674zM350.316 528.842c-26.947 0-48.505-21.558-48.505-48.505s21.558-48.505 48.505-48.505c26.947 0 48.505 21.558 48.505 48.505s-21.558 48.505-48.505 48.505zM673.684 528.842c-26.947 0-48.505-21.558-48.505-48.505s21.558-48.505 48.505-48.505c26.947 0 48.505 21.558 48.505 48.505s-21.558 48.505-48.505 48.505z" />
<glyph unicode="&#xe904;" glyph-name="login" horiz-adv-x="768" d="M686.080 227.84l-158.72 81.92c-15.36 10.24-25.6 25.6-25.6 40.96v56.32c5.12 5.12 10.24 10.24 10.24 15.36 20.48 30.72 35.84 61.44 51.2 97.28 25.6 10.24 40.96 35.84 40.96 61.44v71.68c0 15.36-5.12 30.72-15.36 46.080v87.040c0 10.24 5.12 66.56-35.84 112.64-35.84 40.96-92.16 61.44-168.96 61.44s-133.12-20.48-163.84-61.44c-40.96-46.080-35.84-102.4-35.84-112.64v-92.16c-10.24-10.24-15.36-25.6-15.36-40.96v-66.56c0-20.48 10.24-40.96 25.6-51.2 15.36-61.44 46.080-107.52 56.32-122.88v-56.32c0-15.36-10.24-30.72-20.48-40.96l-148.48-81.92c-51.2-30.72-81.92-87.040-81.92-143.36v-51.2c0-81.92 250.88-102.4 384-102.4s384 20.48 384 102.4v51.2c0 56.32-30.72 112.64-81.92 138.24zM732.16 38.4c0-25.6-122.88-66.56-348.16-66.56s-348.16 40.96-348.16 66.56v51.2c0 46.080 25.6 81.92 61.44 107.52l148.48 81.92c25.6 15.36 40.96 40.96 40.96 71.68v66.56l-5.12 5.12c0 0-40.96 51.2-56.32 122.88v5.12l-10.24 5.12c-10.24 5.12-15.36 15.36-15.36 30.72v66.56c0 10.24 5.12 20.48 10.24 25.6l5.12 5.12v107.52c0 0-5.12 46.080 25.6 87.040 25.6 30.72 76.8 51.2 138.24 51.2 66.56 0 112.64-15.36 138.24-46.080 30.72-35.84 25.6-87.040 25.6-87.040v-107.52l5.12-5.12c15.36-10.24 20.48-20.48 20.48-30.72v-66.56c0-15.36-10.24-25.6-25.6-30.72l-5.12-5.12-5.12-10.24c-10.24-35.84-25.6-66.56-46.080-97.28-5.12-5.12-10.24-15.36-15.36-20.48l-5.12-5.12v-71.68c0-30.72 15.36-56.32 40.96-71.68l158.72-81.92c40.96-20.48 66.56-61.44 66.56-107.52v-46.080z" />
<glyph unicode="&#xe905;" glyph-name="search-add" horiz-adv-x="962" d="M528.826 575.399h-115.38v115.38c0 9.615-9.615 19.23-19.23 19.23s-19.23-9.615-19.23-19.23v-115.38h-110.573c-9.615 0-19.23-9.615-19.23-19.23s9.615-19.23 19.23-19.23h115.38v-115.38c0-9.615 9.615-19.23 19.23-19.23s19.23 9.615 19.23 19.23v115.38h110.573c9.615 0 19.23 9.615 19.23 19.23s-9.615 19.23-19.23 19.23zM956.695-30.347l-278.836 298.066c72.113 72.113 115.38 173.070 115.38 288.451 0 225.953-177.878 403.831-394.216 403.831s-399.023-182.685-399.023-403.831 177.878-403.831 394.216-403.831c96.15 0 182.685 33.653 249.991 91.343l278.836-298.066c4.808-4.808 9.615-4.808 14.423-4.808s9.615 0 14.423 4.808 9.615 14.423 4.808 24.038zM38.46 556.169c0 201.915 158.648 365.371 360.563 365.371s360.563-163.455 360.563-365.371-158.648-365.371-360.563-365.371-360.563 163.455-360.563 365.371z" />
<glyph unicode="&#xe906;" glyph-name="checkbox" d="M864-64h-704c-89.6 0-160 70.4-160 160v704c0 89.6 70.4 160 160 160h704c89.6 0 160-70.4 160-160v-704c0-89.6-70.4-160-160-160zM160 896c-51.2 0-96-44.8-96-96v-704c0-51.2 44.8-96 96-96h704c51.2 0 96 44.8 96 96v704c0 51.2-44.8 96-96 96h-704z" />
<glyph unicode="&#xe907;" glyph-name="check-1" horiz-adv-x="1346" d="M424.229 140.8l-321.829 321.829-102.4-102.4 424.229-424.229 921.6 921.6-102.4 102.4z" />
<glyph unicode="&#xe908;" glyph-name="check-2" horiz-adv-x="1342" d="M470.805-64l-470.805 470.805 153.011 164.782 317.793-317.793 706.207 706.207 164.782-153.011z" />
<glyph unicode="&#xe909;" glyph-name="remove" horiz-adv-x="963" d="M245.76 135.68c5.12-25.6 25.6-40.96 46.080-40.96 0 0 5.12 0 5.12 0 10.24 0 25.6 10.24 30.72 20.48 10.24 10.24 10.24 20.48 10.24 35.84l-40.96 348.16c0 10.24-10.24 25.6-20.48 30.72-10.24 10.24-20.48 15.36-35.84 10.24-10.24 0-25.6-10.24-30.72-20.48-10.24-5.12-10.24-20.48-10.24-30.72l46.080-353.28zM235.52 504.32c5.12 5.12 5.12 5.12 10.24 5.12 0 0 0 0 0 0 5.12 0 5.12 0 10.24-5.12 5.12 0 5.12-5.12 5.12-10.24l46.080-348.16c0-5.12 0-10.24-5.12-10.24-5.12-5.12-5.12-5.12-10.24-5.12 0 0 0 0 0 0-10.24 0-15.36 5.12-15.36 15.36l-46.080 348.16c0 0 0 5.12 5.12 10.24zM906.24 821.76h-194.56v5.12c0 71.68-61.44 133.12-133.12 133.12h-189.44c-71.68 0-133.12-61.44-133.12-133.12v-5.12h-194.56c-35.84 0-61.44-30.72-61.44-61.44v-87.040c0-35.84 25.6-61.44 61.44-61.44h10.24l76.8-599.040c5.12-40.96 40.96-76.8 87.040-76.8h491.52c46.080 0 81.92 35.84 92.16 81.92l76.8 599.040h10.24c35.84 0 61.44 25.6 61.44 61.44v81.92c-5.12 30.72-30.72 61.44-61.44 61.44zM286.72 826.88v0c0 56.32 46.080 102.4 102.4 102.4h184.32c56.32 0 102.4-46.080 102.4-102.4v-5.12h-30.72v5.12c0 35.84-30.72 66.56-66.56 66.56h-189.44c-35.84 0-66.56-30.72-66.56-66.56v-5.12h-35.84v5.12zM609.28 826.88v-5.12h-256v5.12c0 20.48 15.36 35.84 35.84 35.84h184.32c20.48 0 35.84-15.36 35.84-35.84zM783.36 17.92c-5.12-30.72-30.72-51.2-56.32-51.2h-491.52c-30.72 0-56.32 20.48-56.32 51.2l-76.8 593.92h757.76l-76.8-593.92zM931.84 673.28c0-15.36-10.24-30.72-30.72-30.72h-839.68c-15.36 0-30.72 10.24-30.72 30.72v87.040c0 15.36 10.24 30.72 30.72 30.72h844.8c15.36 0 30.72-10.24 30.72-30.72v-87.040zM481.28 94.72c25.6 0 46.080 20.48 46.080 46.080v353.28c0 25.6-20.48 46.080-46.080 46.080s-46.080-20.48-46.080-46.080v-353.28c0-25.6 20.48-46.080 46.080-46.080zM465.92 494.080c0 10.24 5.12 15.36 15.36 15.36s15.36-5.12 15.36-15.36v-353.28c0-10.24-5.12-15.36-15.36-15.36s-15.36 5.12-15.36 15.36v353.28zM665.6 94.72c0 0 5.12 0 5.12 0 25.6 0 46.080 20.48 46.080 40.96l51.2 353.28c0 10.24 0 25.6-10.24 35.84s-20.48 15.36-30.72 20.48c-10.24 0-25.6 0-35.84-10.24s-15.36-20.48-20.48-30.72l-46.080-353.28c0-10.24 0-25.6 10.24-35.84 10.24-15.36 20.48-20.48 30.72-20.48zM655.36 145.92l46.080 353.28c0 5.12 5.12 10.24 5.12 10.24 5.12 0 5.12 5.12 10.24 5.12 0 0 0 0 0 0 5.12 0 10.24-5.12 10.24-5.12 5.12-5.12 5.12-5.12 5.12-10.24l-40.96-358.4c0-10.24-10.24-15.36-20.48-15.36-5.12 0-10.24 5.12-10.24 5.12 0 5.12-5.12 10.24-5.12 15.36z" />
<glyph unicode="&#xe90a;" glyph-name="close" d="M572.509 448l442.182 442.182c13.964 13.964 13.964 41.891 0 60.509-13.964 13.964-41.891 13.964-60.509 0l-442.182-442.182-442.182 437.527c-13.964 13.964-41.891 13.964-60.509 0-13.964-13.964-13.964-41.891 0-60.509l442.182-437.527-442.182-442.182c-13.964-13.964-13.964-41.891 0-60.509 9.309-4.655 23.273-9.309 32.582-9.309s23.273 4.655 27.927 13.964l442.182 442.182 442.182-442.182c9.309-9.309 18.618-13.964 27.927-13.964s23.273 4.655 27.927 13.964c13.964 13.964 13.964 41.891 0 60.509l-437.527 437.527z" />
<glyph unicode="&#xe90b;" glyph-name="next" horiz-adv-x="679" d="M50.693-64c-20.277 0-30.416 10.139-40.554 20.277-20.277 30.416-10.139 60.832 10.139 81.109l517.069 364.99-506.931 466.376c-20.277 20.277-20.277 50.693 0 81.109 20.277 10.139 50.693 20.277 70.97 0l557.624-506.931c10.139-10.139 20.277-30.416 20.277-40.554s-10.139-40.554-20.277-50.693l-577.901-405.545c0 0-20.277-10.139-30.416-10.139z" />
<glyph unicode="&#xe90c;" glyph-name="more" horiz-adv-x="1013" d="M573.89 374.857v-438.857h-135.033v438.857h-438.857v146.286h438.857v438.857h135.033v-438.857h438.857v-146.286h-438.857z" />
<glyph unicode="&#xe90d;" glyph-name="arriba" horiz-adv-x="1724" d="M1723.733 21.333c0-34.133-17.067-51.2-34.133-68.267-51.2-34.133-102.4-17.067-136.533 17.067l-699.733 750.933-682.667-733.867c-34.133-34.133-85.333-34.133-136.533 0-34.133 34.133-51.2 85.333-17.067 119.467l768 819.2c17.067 17.067 51.2 34.133 85.333 34.133s51.2-17.067 68.267-34.133l768-836.267c0-17.067 17.067-34.133 17.067-68.267z" />
<glyph unicode="&#xe90e;" glyph-name="abajo" horiz-adv-x="1724" d="M1723.733 874.667c0 34.133-17.067 51.2-34.133 68.267-51.2 34.133-102.4 17.067-136.533-17.067l-699.733-750.933-682.667 733.867c-34.133 34.133-85.333 34.133-136.533 0-34.133-34.133-51.2-85.333-17.067-119.467l768-819.2c17.067-17.067 51.2-34.133 85.333-34.133s51.2 17.067 68.267 34.133l768 853.333c0 0 17.067 34.133 17.067 51.2z" />
<glyph unicode="&#xe90f;" glyph-name="phone" horiz-adv-x="704" d="M610.676 960h-521.309c-48.407 0-89.367-33.513-89.367-74.473v-871.331c0-40.96 40.96-74.473 89.367-74.473h521.309c52.131 0 89.367 33.513 89.367 74.473v871.331c3.724 40.96-37.236 74.473-89.367 74.473v0zM40.96 773.818h621.847v-547.375h-621.847v547.375zM89.367 926.487h521.309c26.065 0 48.407-18.618 48.407-40.96v-78.196h-618.124v78.196c0 22.342 22.342 40.96 48.407 40.96v0zM610.676-26.764h-521.309c-26.065 0-48.407 18.618-48.407 40.96v178.735h621.847v-178.735c0-26.065-22.342-40.96-52.131-40.96v0zM350.022 144.524c-26.065 0-52.131-22.342-52.131-48.407s22.342-52.131 52.131-52.131c26.065 0 52.131 22.342 52.131 52.131 0 22.342-22.342 48.407-52.131 48.407v0zM350.022 66.327c-14.895 0-26.065 11.171-26.065 26.065s11.171 26.065 26.065 26.065c14.895 0 26.065-11.171 26.065-26.065s-11.171-26.065-26.065-26.065v0z" />
<glyph unicode="&#xe910;" glyph-name="mesagge" horiz-adv-x="1442" d="M1168.754 166.534c-5.361 0-10.723 0-16.084 5.361l-268.063 251.979c-10.723 10.723-10.723 21.445 0 32.168s21.445 10.723 32.168 0l268.063-251.979c10.723-10.723 10.723-21.445 0-32.168-5.361 0-10.723-5.361-16.084-5.361v0zM273.424 166.534c-5.361 0-10.723 0-16.084 5.361-10.723 10.723-10.723 21.445 0 32.168l268.063 251.979c10.723 10.723 26.806 10.723 32.168 0 10.723-10.723 10.723-21.445 0-32.168l-268.063-251.979c-5.361 0-10.723-5.361-16.084-5.361v0zM1324.23-64h-1206.283c-64.335 0-117.948 53.613-117.948 117.948v788.105c0 64.335 53.613 117.948 117.948 117.948h1206.283c64.335 0 117.948-53.613 117.948-117.948v-793.466c0-58.974-53.613-112.586-117.948-112.586v0zM117.948 911.749c-37.529 0-69.696-32.168-69.696-69.696v-793.466c0-37.529 32.168-69.696 69.696-69.696h1206.283c37.529 0 69.696 32.168 69.696 69.696v793.466c0 37.529-32.168 69.696-69.696 69.696h-1206.283zM718.408 332.733c-32.168 0-64.335 10.723-85.78 32.168l-595.099 514.681c-10.723 10.723-10.723 26.806 0 37.529s21.445 10.723 32.168 0l595.099-520.042c32.168-26.806 80.419-26.806 107.225 0l595.099 520.042c10.723 10.723 26.806 5.361 32.168 0 10.723-10.723 5.361-26.806 0-32.168l-595.099-525.403c-21.445-16.084-53.613-26.806-85.78-26.806v0z" />
<glyph unicode="&#xe911;" glyph-name="map" horiz-adv-x="717" d="M362.020 735.892c-72.404 0-131.017-58.613-131.017-131.017s58.613-131.017 131.017-131.017c72.404 0 131.017 58.613 131.017 131.017s-58.613 131.017-131.017 131.017v0zM362.020 497.993c-58.613 0-106.882 48.269-106.882 106.882s48.269 106.882 106.882 106.882c58.613 0 106.882-48.269 106.882-106.882s-48.269-106.882-106.882-106.882v0zM613.71 856.566c-68.956 68.956-158.599 103.434-255.138 103.434s-186.182-37.926-255.138-103.434c-124.121-124.121-141.36-362.020-34.478-503.38l286.168-413.737 286.168 413.737c113.778 141.36 96.539 375.811-27.582 503.38v0zM617.158 370.424l-258.586-375.811-258.586 375.811c-99.987 131.017-86.195 348.229 27.582 462.007 62.061 62.061 141.36 96.539 231.003 96.539 86.195 0 168.943-34.478 231.003-96.539 113.778-113.778 127.569-330.99 27.582-462.007v0z" />
<glyph unicode="&#xe912;" glyph-name="adjuntar" horiz-adv-x="938" d="M938.156-27.21v668.359c0 12.263-6.132 18.395-12.263 30.659l-300.455 282.060c-12.263 0-18.395 6.132-30.659 6.132h-472.144c-18.395 0-36.79-18.395-36.79-36.79v-423.090c0-18.395 18.395-36.79 36.79-36.79s36.79 18.395 36.79 36.79v386.299h386.299v-288.192c0-18.395 18.395-36.79 36.79-36.79h269.796c0 0 6.132 0 6.132 0v-545.725h-692.886v147.162c0 18.395-18.395 36.79-36.79 36.79s-42.922-18.395-42.922-36.79v-190.084c0-18.395 18.395-36.79 36.79-36.79h772.599c24.527 0 42.922 18.395 42.922 36.79zM619.305 843.497l226.874-214.611h-226.874v214.611zM0 340.695c0-18.395 18.395-36.79 36.79-36.79h392.431l-122.635-110.371c-18.395-12.263-18.395-36.79-6.132-55.186 6.132-6.132 18.395-12.263 30.659-12.263 6.132 0 18.395 6.132 24.527 12.263l196.216 171.689c6.132 6.132 12.263 18.395 12.263 30.659s0 18.395-6.132 24.527l-196.216 177.82c-18.395 12.263-42.922 12.263-55.186-6.132-12.263-12.263-12.263-36.79 0-49.054l122.635-110.371h-392.431c-18.395 0-36.79-18.395-36.79-36.79z" />
<glyph unicode="&#xe913;" glyph-name="icono-google" horiz-adv-x="1334" d="M1024 504.535h-477.76v-159.253h291.434c-45.67-138.528-173.919-236.749-325.11-236.749-188.66 0-341.599 152.939-341.599 341.599s152.939 341.599 341.599 341.599c96.303 0 183.299-39.851 245.396-103.963l0.087-0.090 115.459 125.81c-92.464 91.544-219.712 148.102-360.17 148.102-282.77 0-512-229.23-512-512s229.23-512 512-512c0.651 0 1.301 0.001 1.951 0.004h-0.101c0.414-0.001 0.904-0.002 1.394-0.002 248.569 0 456.648 173.359 509.928 405.767l0.678 3.516v159.253zM1333.748 505.331h-97.145v97.941h-84.404v-97.941h-97.145v-83.608h97.145v-97.941h84.404v97.941h97.145v83.608z" />
<glyph unicode="&#xe914;" glyph-name="error" horiz-adv-x="1119" d="M560.418 240.934c-30.905 0-57.69-26.785-57.69-57.69s26.785-57.69 57.69-57.69c30.905 0 57.69 26.785 55.63 55.63 2.060 32.966-24.724 59.751-55.63 59.751zM1091.992 36.958c37.087 61.811 37.087 135.984 0 199.855l-360.563 622.229c-35.026 61.811-100.958 100.958-173.070 100.958s-135.984-37.087-173.070-98.897l-358.503-626.35c-35.026-61.811-35.026-138.044 0-199.855s100.958-98.897 171.010-98.897h719.066c74.173 0 140.105 37.087 175.131 100.958zM1013.698 82.286c-20.604-35.026-55.63-55.63-94.777-55.63h-719.066c-39.147 0-74.173 20.604-94.777 53.569-20.604 35.026-20.604 76.233 0 109.199l360.563 626.35c18.543 35.026 53.569 53.569 94.777 53.569 39.147 0 74.173-20.604 94.777-55.63l360.563-624.29c18.543-32.966 18.543-72.113-2.060-107.139zM545.996 644.765c-26.785-8.241-45.328-32.966-45.328-61.811 2.060-18.543 2.060-37.087 4.121-55.63 4.121-70.052 8.241-138.044 12.362-206.036 2.060-22.664 18.543-41.207 43.268-41.207 22.664 0 41.207 18.543 43.268 41.207 0 14.423 0 26.785 2.060 41.207 2.060 45.328 6.181 88.596 8.241 133.924 2.060 28.845 4.121 57.69 6.181 86.535 0 10.302-2.060 18.543-6.181 28.845-14.423 26.785-41.207 39.147-67.992 32.966z" />
<glyph unicode="&#xe915;" glyph-name="search" horiz-adv-x="988" d="M406.412 147.175c-223.128 0-406.412 183.284-406.412 406.412s183.284 406.412 406.412 406.412c223.128 0 406.412-183.284 406.412-406.412s-183.284-406.412-406.412-406.412zM406.412 936.093c-211.175 0-382.506-171.331-382.506-382.506s171.331-382.506 382.506-382.506c211.175 0 382.506 171.331 382.506 382.506s-171.331 382.506-382.506 382.506zM678.444 271.956l306.539-318.79-17.232-16.57-306.539 318.79 17.232 16.57z" />
<glyph unicode="&#xe916;" glyph-name="gracias" horiz-adv-x="1539" d="M1539.141 930.683c0 0 0 0 0 0 0 4.188 0 6.282 0 8.376 0 0 0 0 0 2.094s-2.094 4.188-2.094 8.376c0 0 0 0 0 2.094 0 0 0 0 0 0s0 0 0 0 0 0 0 0c-2.094 2.094-4.188 4.188-6.282 6.282 0 0-2.094 0-2.094 0-2.094 2.094-4.188 2.094-6.282 2.094 0 0-2.094 0-2.094 0-2.094 0-4.188 0-6.282 0 0 0-2.094 0-2.094 0s-2.094 0-2.094 0l-1488.883-307.828c-10.47-2.094-18.847-10.47-20.941-20.941s4.188-20.941 12.564-27.223l427.19-224.065 75.387-414.626c0 0 0 0 0 0 0-2.094 0-4.188 0-6.282 0 0 0-2.094 0-2.094 0-2.094 2.094-4.188 2.094-6.282 0 0 0 0 0-2.094 0 0 0 0 0 0s0 0 2.094-2.094 2.094-2.094 4.188-4.188c0 0 0 0 0 0s0 0 2.094 0 4.188-2.094 4.188-2.094c0 0 2.094 0 2.094 0 2.094 0 4.188-2.094 6.282-2.094 0 0 0 0 0 0v0 0c0 0 0 0 0 0s0 0 2.094 0c6.282 0 12.564 4.188 18.847 8.376l284.793 188.466 297.358-192.654c4.188-2.094 8.376-4.188 14.658-4.188 2.094 0 6.282 0 8.376 2.094 8.376 2.094 12.564 8.376 16.753 14.658l355.992 971.648c0 0 2.094 0 2.094 4.188 0-2.094 0-2.094 0 0 0-2.094 0 0 0 0zM1241.783 767.346l-615.656-452.319c0 0-2.094-2.094-2.094-2.094s0 0 0 0 0-2.094-2.094-2.094c0 0 0-2.094-2.094-2.094 0-2.094-2.094-2.094-2.094-4.188 0 0 0 0 0 0s0 0 0 0l-71.198-228.254-56.54 309.922 751.771 381.121zM586.339 23.951l69.104 230.348 108.892-71.198 31.411-20.941-104.703-71.198-104.703-67.010zM1333.922 872.049l-871.133-446.037-362.274 190.56 1233.407 255.476zM1141.268-1.178l-454.413 297.358 772.712 567.493-318.299-864.851z" />
<glyph unicode="&#xe917;" glyph-name="youtube" horiz-adv-x="845" d="M532.664 248.251c0 4.592 0 9.184-4.592 13.776s-9.184 9.184-13.776 9.184c-9.184 0-13.776-4.592-22.96-9.184-4.592 0-4.592-4.592-4.592-4.592v-174.493c0 0 0 0 0-4.592 4.592-4.592 9.184-9.184 18.368-9.184 13.776-4.592 18.368 4.592 22.96 13.776 0 4.592 0 4.592 0 9.184 4.592 55.103 4.592 105.614 4.592 156.126zM532.664 248.251c0 4.592 0 9.184-4.592 13.776s-9.184 9.184-13.776 9.184c-9.184 0-13.776-4.592-22.96-9.184-4.592 0-4.592-4.592-4.592-4.592v-174.493c0 0 0 0 0-4.592 4.592-4.592 9.184-9.184 18.368-9.184 13.776-4.592 18.368 4.592 22.96 13.776 0 4.592 0 4.592 0 9.184 4.592 55.103 4.592 105.614 4.592 156.126zM720.933 500.807c-197.453 4.592-399.498 4.592-596.951 0-68.879 0-123.982-55.103-123.982-123.982v-312.251c0-68.879 55.103-123.982 123.982-128.574 197.453-4.592 399.498-4.592 596.951 0 68.879 0 123.982 59.695 123.982 128.574v312.251c0 68.879-55.103 123.982-123.982 123.982zM183.677 37.022h-59.695v321.435h-59.695v55.103h174.493v-50.511h-55.103v-326.027zM385.722 170.188v-133.166h-50.511v32.143c0 0-4.592-4.592-4.592-4.592-9.184-13.776-22.96-22.96-36.735-27.552-9.184-4.592-13.776-4.592-22.96 0-9.184 0-18.368 9.184-22.96 18.368s-4.592 18.368-4.592 27.552c0 36.735 0 234.188 0 234.188h50.511c0 0 0-142.35 0-211.229 0-4.592 0-9.184 0-9.184 0-9.184 9.184-13.776 18.368-9.184 9.184 0 18.368 9.184 22.96 13.776 0 0 0 4.592 0 4.592v211.229h50.511v-146.942zM578.583 64.574c-4.592-18.368-22.96-32.143-41.327-32.143s-32.143 9.184-41.327 18.368c0 0-4.592 4.592-4.592 4.592v-22.96h-55.103v376.538h50.511v-123.982c0 0 4.592 4.592 4.592 9.184 9.184 9.184 18.368 13.776 27.552 18.368 18.368 4.592 41.327 0 50.511-22.96 4.592-13.776 9.184-27.552 9.184-41.327 0-55.103 0-105.614 0-160.717 4.592-4.592 4.592-13.776 0-22.96zM766.852 73.758c-9.184-27.552-27.552-41.327-55.103-45.919-18.368-4.592-32.143 0-50.511 4.592-22.96 9.184-32.143 27.552-36.735 50.511 0 9.184-4.592 22.96-4.592 32.143 0 41.327 0 82.655 0 123.982 0 22.96 4.592 41.327 18.368 59.695 18.368 18.368 36.735 27.552 64.287 22.96 9.184 0 13.776 0 22.96-4.592 22.96-9.184 36.735-27.552 41.327-50.511 0-9.184 4.592-18.368 4.592-27.552 0-22.96 0-68.879 0-68.879h-96.43v-68.879c0-13.776 9.184-22.96 22.96-22.96s22.96 9.184 22.96 22.96v36.735h50.511c0 0 4.592-45.919-4.592-64.287zM720.933 252.843c0 13.776-9.184 22.96-22.96 22.96s-22.96-9.184-22.96-22.96v-41.327h45.919v41.327zM528.072 266.619c-4.592 4.592-9.184 9.184-13.776 9.184-9.184 0-13.776-4.592-22.96-9.184-4.592 0-4.592-4.592-4.592-4.592v-174.493c0 0 0 0 0-4.592 4.592-4.592 9.184-9.184 18.368-9.184 13.776-4.592 18.368 4.592 22.96 13.776 0 4.592 0 4.592 0 9.184 0 50.511 0 101.022 0 151.534 4.592 4.592 4.592 13.776 0 18.368zM656.646 858.978v-280.108h-50.511v32.143c-4.592-4.592-9.184-13.776-13.776-18.368-9.184-9.184-18.368-13.776-32.143-18.368-18.368-4.592-36.735 4.592-41.327 22.96 0 4.592-4.592 13.776-4.592 22.96v238.78h50.511v-215.821c0-4.592 0-4.592 0-9.184 0-9.184 9.184-13.776 18.368-9.184 9.184 9.184 13.776 13.776 22.96 22.96 0 0 0 4.592 0 4.592v206.637h50.511zM229.596 813.058c-13.776 45.919-36.735 146.942-36.735 146.942h-59.695c0 0 45.919-151.534 64.287-215.821 0-4.592 0-4.592 0-9.184v-156.126h55.103v156.126c0 4.592 0 4.592 0 9.184 22.96 64.287 68.879 215.821 68.879 215.821h-59.695c0 0-22.96-101.022-32.143-146.942zM394.906 868.161v0c-41.327 0-78.063-32.143-78.063-73.471v-146.942c0-41.327 32.143-73.471 73.471-73.471s73.471 32.143 73.471 73.471v146.942c4.592 41.327-27.552 73.471-68.879 73.471zM413.274 643.157c0-13.776-9.184-22.96-22.96-22.96s-22.96 9.184-22.96 22.96v151.534c0 13.776 9.184 22.96 22.96 22.96s22.96-9.184 22.96-22.96v-151.534z" />
<<<<<<< HEAD
<glyph unicode="&#xe918;" glyph-name="icono-01" horiz-adv-x="826" d="M413.117 197.646v0c-8.496 0-15.378 6.883-15.378 15.378l0.054 346.925c0 8.496 6.883 15.378 15.378 15.378v0c8.496 0 15.378-6.883 15.378-15.378l-0.054-346.925c0-8.496-6.883-15.378-15.378-15.378zM413.117 197.646c-3.925 0-7.85 1.506-10.915 4.517l-132.651 132.651c-6.022 6.022-6.022 15.755 0 21.723 6.022 6.022 15.755 6.022 21.723 0l121.79-121.79 121.79 121.79c6.022 6.022 15.755 6.022 21.723 0 6.022-6.022 6.022-15.755 0-21.723l-132.651-132.651c-2.904-3.011-6.829-4.517-10.808-4.517zM749.395-64.054h-672.45c-42.371 0-76.891 34.467-76.891 76.891v870.271c0 42.425 34.52 76.891 76.891 76.891h488.341c8.496 0 15.378-6.883 15.378-15.378s-6.883-15.378-15.378-15.378h-488.341c-25.433 0-46.135-20.702-46.135-46.135v-870.217c0-25.433 20.702-46.135 46.135-46.135h672.45c25.433 0 46.135 20.702 46.135 46.135v679.387c0 8.496 6.883 15.378 15.378 15.378s15.378-6.883 15.378-15.378v-679.44c0-42.371-34.52-76.891-76.891-76.891zM810.909 676.9h-245.622c-8.496 0-15.378 6.883-15.378 15.378v245.676c0 8.496 6.883 15.378 15.378 15.378s15.378-6.883 15.378-15.378v-230.244h230.244c8.496 0 15.378-6.883 15.378-15.378s-6.883-15.432-15.378-15.432zM810.909 676.9c-3.979 0-8.012 1.559-11.023 4.624l-245.622 252.29c-5.915 6.076-5.807 15.862 0.323 21.723 6.076 5.915 15.808 5.807 21.723-0.323l245.622-252.29c5.915-6.076 5.807-15.862-0.323-21.723-2.957-2.85-6.829-4.302-10.7-4.302z" />
=======
<glyph unicode="&#xe918;" glyph-name="menu" d="M128 192h768v85.333h-768v-85.333zM128 405.333h768v85.333h-768v-85.333zM128 704v-85.333h768v85.333h-768z" />
>>>>>>> master
</font>
</defs>
</svg>
